<svg xmlns="http://www.w3.org/2000/svg" width="419" height="60" fill="none" viewBox="0 0 419 60">
  <path fill="#fff" d="M88.023 42V18.727h9.318c1.712 0 3.14.254 4.284.762 1.144.507 2.004 1.212 2.58 2.113.575.894.863 1.924.863 3.091 0 .91-.182 1.708-.545 2.398a4.715 4.715 0 0 1-1.5 1.682 6.155 6.155 0 0 1-2.159.92v.227a5.207 5.207 0 0 1 2.488.75c.781.463 1.413 1.11 1.898 1.944.485.825.727 1.81.727 2.954 0 1.235-.307 2.337-.92 3.307-.606.962-1.504 1.724-2.693 2.284-1.19.56-2.656.841-4.398.841h-9.943Zm4.92-4.023h4.011c1.372 0 2.372-.261 3-.784.629-.53.944-1.235.944-2.113 0-.644-.156-1.213-.466-1.705-.311-.492-.754-.879-1.33-1.16-.568-.28-1.246-.42-2.034-.42h-4.125v6.182Zm0-9.511h3.648c.674 0 1.273-.117 1.795-.352.53-.243.947-.584 1.25-1.023.311-.44.466-.966.466-1.58 0-.84-.299-1.519-.898-2.034-.59-.515-1.431-.773-2.522-.773h-3.739v5.762ZM128.23 42h-5.272l8.034-23.273h6.341L145.355 42h-5.272l-5.83-17.954h-.182L128.23 42Zm-.329-9.148h12.454v3.841h-12.454v-3.84Zm31.565-10.068v-4.057h19.114v4.057h-7.125V42h-4.864V22.784h-7.125Zm36.415 0v-4.057h19.114v4.057h-7.125V42h-4.864V22.784h-7.125ZM233.183 42V18.727h4.92v19.216h9.977V42h-14.897Zm33.196 0V18.727h15.682v4.057h-10.762v5.546h9.955v4.056h-9.955v5.557h10.807V42h-15.727Zm47.259-16.58c-.091-.916-.481-1.628-1.171-2.136-.689-.508-1.625-.761-2.807-.761-.803 0-1.481.113-2.034.34-.553.22-.977.527-1.272.921a2.215 2.215 0 0 0-.432 1.341c-.015.417.072.78.261 1.09.197.311.466.58.807.808.341.22.735.413 1.182.58.447.158.924.295 1.432.408l2.091.5a14.73 14.73 0 0 1 2.795.91 8.514 8.514 0 0 1 2.205 1.397 5.812 5.812 0 0 1 1.443 1.955c.348.75.526 1.61.534 2.58-.008 1.423-.371 2.658-1.091 3.704-.712 1.038-1.743 1.844-3.091 2.42-1.341.569-2.958.853-4.852.853-1.879 0-3.515-.288-4.909-.864-1.387-.576-2.47-1.428-3.25-2.557-.773-1.136-1.178-2.542-1.216-4.216h4.761c.053.78.277 1.432.671 1.955.401.515.935.905 1.602 1.17.674.258 1.435.387 2.284.387.833 0 1.557-.122 2.17-.364.622-.242 1.103-.58 1.444-1.011a2.34 2.34 0 0 0 .511-1.49c0-.522-.155-.961-.466-1.317-.303-.356-.75-.66-1.341-.91-.583-.25-1.299-.477-2.148-.681l-2.534-.637c-1.962-.477-3.511-1.223-4.647-2.238-1.137-1.015-1.701-2.383-1.694-4.102-.007-1.41.368-2.64 1.125-3.694.766-1.053 1.815-1.875 3.148-2.465 1.333-.591 2.849-.887 4.546-.887 1.727 0 3.234.296 4.522.887 1.296.59 2.303 1.412 3.023 2.465.72 1.053 1.091 2.273 1.114 3.66h-4.716ZM337.021 42V18.727h4.921v9.602h9.989v-9.602h4.909V42h-4.909v-9.614h-9.989V42h-4.921Zm43.836-23.273V42h-4.921V18.727h4.921ZM399.945 42V18.727h9.182c1.765 0 3.269.337 4.511 1.012 1.243.666 2.19 1.594 2.841 2.784.659 1.181.989 2.545.989 4.09 0 1.546-.333 2.91-1 4.091-.667 1.182-1.633 2.103-2.898 2.762-1.257.659-2.78.989-4.568.989h-5.852V30.51h5.057c.947 0 1.727-.162 2.34-.488.622-.334 1.084-.792 1.387-1.375.31-.591.466-1.27.466-2.034 0-.773-.156-1.447-.466-2.023-.303-.583-.765-1.034-1.387-1.352-.621-.326-1.409-.489-2.363-.489h-3.318V42h-4.921Z"/>
  <path fill="#fff" fill-rule="evenodd" d="M25 2.5a5 5 0 0 0-5 5V15h-5a5 5 0 0 0-5 5v12.5c0 .084.004.166.012.248a30.066 30.066 0 0 1-2.168-.224 2.5 2.5 0 0 0-2.688 3.346l6.177 16.63h-.083c-2.62 0-3.75-1.611-3.75-2.5a2.5 2.5 0 1 0-5 0c0 4.634 4.467 7.5 8.75 7.5 2.26 0 4.57-.798 6.25-2.232 1.68 1.434 3.99 2.232 6.25 2.232s4.57-.798 6.25-2.232c1.679 1.434 3.99 2.232 6.25 2.232s4.57-.798 6.25-2.232c1.679 1.434 3.99 2.232 6.25 2.232 4.283 0 8.75-2.866 8.75-7.5a2.5 2.5 0 1 0-5 0c0 .889-1.13 2.5-3.75 2.5h-.083l6.176-16.63a2.5 2.5 0 0 0-2.687-3.346 30.35 30.35 0 0 1-2.168.224c.008-.081.012-.164.012-.248V20a5 5 0 0 0-5-5h-5V7.5a5 5 0 0 0-5-5H25ZM35 15V7.5H25V15h10Zm-12.5 5H15v12.52a16.318 16.318 0 0 0 3.611-1.069c3.149-1.345 6.207-3.826 9.41-7.978a2.5 2.5 0 0 1 3.959 0c3.202 4.152 6.26 6.633 9.409 7.978 1.153.493 2.35.847 3.611 1.069V20H22.5Zm22.202 28.815 4.092-11.016c-3.284.047-6.388-.476-9.37-1.75-3.396-1.452-6.478-3.81-9.424-7.126-2.945 3.316-6.028 5.674-9.424 7.126-2.982 1.274-6.086 1.797-9.37 1.75l4.092 11.016A2.5 2.5 0 0 1 20 50c0 .889 1.13 2.5 3.75 2.5s3.75-1.611 3.75-2.5a2.5 2.5 0 1 1 5 0c0 .889 1.13 2.5 3.75 2.5S40 50.889 40 50a2.5 2.5 0 0 1 4.702-1.185Z" clip-rule="evenodd"/>
</svg>
